ffmpeg version 8.0 Copyright (c) 2000-2025 the FFmpeg developers
  built with gcc 14.3.0 (conda-forge gcc 14.3.0-5)
  configuration: --prefix=/hkfs/work/workspace_haic/scratch/ulrat-masters/MasterThesis/Codebase_MasterThesis/.pixi/envs/default --cc=/home/conda/feedstock_root/build_artifacts/ffmpeg_1758923943056/_build_env/bin/x86_64-conda-linux-gnu-cc --cxx=/home/conda/feedstock_root/build_artifacts/ffmpeg_1758923943056/_build_env/bin/x86_64-conda-linux-gnu-c++ --nm=/home/conda/feedstock_root/build_artifacts/ffmpeg_1758923943056/_build_env/bin/x86_64-conda-linux-gnu-nm --ar=/home/conda/feedstock_root/build_artifacts/ffmpeg_1758923943056/_build_env/bin/x86_64-conda-linux-gnu-ar --disable-doc --enable-openssl --enable-demuxer=dash --enable-hardcoded-tables --enable-libfreetype --enable-libharfbuzz --enable-libfontconfig --enable-libopenh264 --enable-libdav1d --disable-gnutls --enable-libvpx --enable-libass --enable-pthreads --enable-alsa --enable-libpulse --enable-libvpl --enable-vaapi --enable-libopenvino --enable-gpl --enable-libx264 --enable-libx265 --enable-libmp3lame --enable-libaom --enable-libsvtav1 --enable-libxml2 --enable-pic --enable-shared --disable-static --enable-version3 --enable-zlib --enable-libvorbis --enable-libopus --enable-librsvg --enable-ffplay --enable-vulkan --enable-libshaderc --pkg-config=/home/conda/feedstock_root/build_artifacts/ffmpeg_1758923943056/_build_env/bin/pkg-config
  libavutil      60.  8.100 / 60.  8.100
  libavcodec     62. 11.100 / 62. 11.100
  libavformat    62.  3.100 / 62.  3.100
  libavdevice    62.  1.100 / 62.  1.100
  libavfilter    11.  4.100 / 11.  4.100
  libswscale      9.  1.100 /  9.  1.100
  libswresample   6.  1.100 /  6.  1.100
[aist#0:1/aac @ 0x55cf5439df00] Guessed Channel Layout: 5.1
Input #0, mov,mp4,m4a,3gp,3g2,mj2, from 'data/MELD.Raw/output_repeated_splits_test/unmodified/dia0_utt0.mp4':
  Metadata:
    major_brand     : isom
    minor_version   : 512
    compatible_brands: isomiso2avc1mp41
    encoder         : Lavf58.12.100
  Duration: 00:00:02.25, start: 0.000000, bitrate: 2342 kb/s
  Chapters:
    Chapter #0:0: start 0.000000, end 2.251000
      Metadata:
        title           : 00:12:36.255
  Stream #0:0[0x1](eng): Video: h264 (High) (avc1 / 0x31637661), yuv420p(progressive), 1280x720 [SAR 1:1 DAR 16:9], 1930 kb/s, 23.98 fps, 23.98 tbr, 27021 tbn (default)
    Metadata:
      handler_name    : VideoHandler
      vendor_id       : [0][0][0][0]
  Stream #0:1[0x2](eng): Audio: aac (LC) (mp4a / 0x6134706D), 48000 Hz, 5.1, fltp, 395 kb/s (default)
    Metadata:
      handler_name    : SoundHandler
      vendor_id       : [0][0][0][0]
  Stream #0:2[0x3](eng): Data: bin_data (text / 0x74786574), 0 kb/s
    Metadata:
      handler_name    : SubtitleHandler
[Parsed_noise_0 @ 0x55cf543d7300] [Eval @ 0x7ffee8f821f0] Undefined constant or missing '(' in 'gauss'
[Parsed_noise_0 @ 0x55cf543d7300] Unable to parse option value "gauss"
[fc#-1 @ 0x55cf543a7480] Error applying option 'allf' to filter 'noise': Invalid argument
Error opening output file data/MELD.Raw/output_repeated_splits_test/visual/V=gaussian_noise_S=5/videos/dia0_utt0.mp4.
Error opening output files: Invalid argument
Traceback (most recent call last):
  File "/hkfs/work/workspace_haic/scratch/ulrat-masters/MasterThesis/Codebase_MasterThesis/utils/apply_all_visual_noise.py", line 118, in <module>
    main()
  File "/hkfs/work/workspace_haic/scratch/ulrat-masters/MasterThesis/Codebase_MasterThesis/utils/apply_all_visual_noise.py", line 111, in main
    apply_visual_corruption(vid, out_video, corr, args.severity, args.overwrite)
  File "/hkfs/work/workspace_haic/scratch/ulrat-masters/MasterThesis/Codebase_MasterThesis/utils/apply_all_visual_noise.py", line 78, in apply_visual_corruption
    _run(cmd)
  File "/hkfs/work/workspace_haic/scratch/ulrat-masters/MasterThesis/Codebase_MasterThesis/utils/apply_all_visual_noise.py", line 15, in _run
    subprocess.run(cmd, check=True)
  File "/hkfs/work/workspace_haic/scratch/ulrat-masters/MasterThesis/Codebase_MasterThesis/.pixi/envs/default/lib/python3.12/subprocess.py", line 571, in run
    raise CalledProcessError(retcode, process.args,
subprocess.CalledProcessError: Command '['ffmpeg', '-n', '-i', 'data/MELD.Raw/output_repeated_splits_test/unmodified/dia0_utt0.mp4', '-vf', 'noise=alls=40:allf=gauss,scale=trunc(iw/2)*2:trunc(ih/2)*2', '-c:v', 'libx264', '-crf', '18', '-preset', 'veryfast', '-ac', '1', '-c:a', 'aac', '-b:a', '128k', '-shortest', 'data/MELD.Raw/output_repeated_splits_test/visual/V=gaussian_noise_S=5/videos/dia0_utt0.mp4']' returned non-zero exit status 234.
